<svg width="1058" height="68" viewBox="0 0 1058 68" fill="none" xmlns="http://www.w3.org/2000/svg">
<line x1="1.5" y1="47" x2="1.5" y2="68" stroke="#F22F2F" stroke-width="2"/>
<line x1="9.75507" y1="39" x2="9.75507" y2="68" stroke="#F22F2F" stroke-width="2"/>
<line x1="19.6612" y1="23" x2="19.6612" y2="68" stroke="#F22F2F" stroke-width="2"/>
<line x1="27.9163" y1="14" x2="27.9163" y2="68" stroke="#F22F2F" stroke-width="2"/>
<line x1="36.1714" y1="23" x2="36.1714" y2="68" stroke="#F22F2F" stroke-width="2"/>
<line x1="44.4265" y1="31" x2="44.4265" y2="68" stroke="#F22F2F" stroke-width="2"/>
<line x1="52.6815" y1="-4.37114e-08" x2="52.6815" y2="68" stroke="#F22F2F" stroke-width="2"/>
<line x1="60.9366" y1="12" x2="60.9366" y2="68" stroke="#F22F2F" stroke-width="2"/>
<line x1="69.1917" y1="39" x2="69.1917" y2="68" stroke="#F22F2F" stroke-width="2"/>
<line y1="-1" x2="11.4265" y2="-1" transform="matrix(-8.03345e-08 1 1 2.37841e-08 147.441 56.5735)" stroke="black" stroke-opacity="0.5" stroke-width="2"/>
<line y1="-1" x2="15.7794" y2="-1" transform="matrix(-8.03344e-08 1 1 2.37841e-08 139.185 52.2206)" stroke="black" stroke-opacity="0.5" stroke-width="2"/>
<line y1="-1" x2="24.4853" y2="-1" transform="matrix(-8.03345e-08 1 1 2.37841e-08 129.279 43.5147)" stroke="black" stroke-opacity="0.5" stroke-width="2"/>
<line y1="-1" x2="29.3824" y2="-1" transform="matrix(-6.69454e-08 1 1 1.98201e-08 121.024 38.6177)" stroke="black" stroke-opacity="0.5" stroke-width="2"/>
<line y1="-1" x2="24.4853" y2="-1" transform="matrix(-8.03345e-08 1 1 2.37841e-08 112.769 43.5147)" stroke="black" stroke-opacity="0.5" stroke-width="2"/>
<line y1="-1" x2="20.1324" y2="-1" transform="matrix(-8.03345e-08 1 1 2.37841e-08 104.514 47.8677)" stroke="black" stroke-opacity="0.5" stroke-width="2"/>
<line y1="-1" x2="37" y2="-1" transform="matrix(-4.37114e-08 1 1 4.37114e-08 96.259 31)" stroke="black" stroke-opacity="0.5" stroke-width="2"/>
<line y1="-1" x2="30.4706" y2="-1" transform="matrix(-8.03345e-08 1 1 2.37841e-08 88.0039 37.5294)" stroke="black" stroke-opacity="0.5" stroke-width="2"/>
<line y1="-1" x2="15.7794" y2="-1" transform="matrix(-8.03344e-08 1 1 2.37841e-08 79.7488 52.2206)" stroke="black" stroke-opacity="0.5" stroke-width="2"/>
<line x1="153.394" y1="54.103" x2="153.394" y2="68" stroke="black" stroke-opacity="0.5" stroke-width="2"/>
<line x1="161.649" y1="48.8088" x2="161.649" y2="68" stroke="black" stroke-opacity="0.5" stroke-width="2"/>
<line x1="171.555" y1="38.2206" x2="171.555" y2="68" stroke="black" stroke-opacity="0.5" stroke-width="2"/>
<line x1="179.81" y1="32.2647" x2="179.81" y2="68" stroke="black" stroke-opacity="0.5" stroke-width="2"/>
<line x1="188.065" y1="38.2206" x2="188.065" y2="68" stroke="black" stroke-opacity="0.5" stroke-width="2"/>
<line x1="196.32" y1="43.5147" x2="196.32" y2="68" stroke="black" stroke-opacity="0.5" stroke-width="2"/>
<line x1="204.575" y1="23" x2="204.575" y2="68" stroke="black" stroke-opacity="0.5" stroke-width="2"/>
<line x1="212.83" y1="30.9412" x2="212.83" y2="68" stroke="black" stroke-opacity="0.5" stroke-width="2"/>
<line x1="221.085" y1="48.8088" x2="221.085" y2="68" stroke="black" stroke-opacity="0.5" stroke-width="2"/>
<line y1="-1" x2="21" y2="-1" transform="matrix(-4.37114e-08 1 1 4.37114e-08 299.334 47)" stroke="black" stroke-opacity="0.5" stroke-width="2"/>
<line y1="-1" x2="29" y2="-1" transform="matrix(-4.37114e-08 1 1 4.37114e-08 291.079 39)" stroke="black" stroke-opacity="0.5" stroke-width="2"/>
<line y1="-1" x2="45" y2="-1" transform="matrix(-4.37114e-08 1 1 4.37114e-08 281.173 23)" stroke="black" stroke-opacity="0.5" stroke-width="2"/>
<line y1="-1" x2="54" y2="-1" transform="matrix(-3.64262e-08 1 1 3.64262e-08 272.918 14)" stroke="black" stroke-opacity="0.5" stroke-width="2"/>
<line y1="-1" x2="45" y2="-1" transform="matrix(-4.37114e-08 1 1 4.37114e-08 264.663 23)" stroke="black" stroke-opacity="0.5" stroke-width="2"/>
<line y1="-1" x2="37" y2="-1" transform="matrix(-4.37114e-08 1 1 4.37114e-08 256.408 31)" stroke="black" stroke-opacity="0.5" stroke-width="2"/>
<line y1="-1" x2="68" y2="-1" transform="matrix(-4.37114e-08 1 1 4.37114e-08 248.153 0)" stroke="black" stroke-opacity="0.5" stroke-width="2"/>
<line y1="-1" x2="56" y2="-1" transform="matrix(-4.37114e-08 1 1 4.37114e-08 239.898 12)" stroke="black" stroke-opacity="0.5" stroke-width="2"/>
<line y1="-1" x2="29" y2="-1" transform="matrix(-4.37114e-08 1 1 4.37114e-08 231.642 39)" stroke="black" stroke-opacity="0.5" stroke-width="2"/>
<line x1="305.287" y1="54.103" x2="305.287" y2="68" stroke="black" stroke-opacity="0.5" stroke-width="2"/>
<line x1="313.542" y1="48.8088" x2="313.542" y2="68" stroke="black" stroke-opacity="0.5" stroke-width="2"/>
<line x1="323.448" y1="38.2206" x2="323.448" y2="68" stroke="black" stroke-opacity="0.5" stroke-width="2"/>
<line x1="331.703" y1="32.2647" x2="331.703" y2="68" stroke="black" stroke-opacity="0.5" stroke-width="2"/>
<line x1="339.959" y1="38.2206" x2="339.959" y2="68" stroke="black" stroke-opacity="0.5" stroke-width="2"/>
<line x1="348.214" y1="43.5147" x2="348.214" y2="68" stroke="black" stroke-opacity="0.5" stroke-width="2"/>
<line x1="356.469" y1="23" x2="356.469" y2="68" stroke="black" stroke-opacity="0.5" stroke-width="2"/>
<line x1="364.724" y1="30.9412" x2="364.724" y2="68" stroke="black" stroke-opacity="0.5" stroke-width="2"/>
<line x1="372.979" y1="48.8088" x2="372.979" y2="68" stroke="black" stroke-opacity="0.5" stroke-width="2"/>
<line y1="-1" x2="21" y2="-1" transform="matrix(-4.37114e-08 1 1 4.37114e-08 451.228 47)" stroke="black" stroke-opacity="0.5" stroke-width="2"/>
<line y1="-1" x2="29" y2="-1" transform="matrix(-4.37114e-08 1 1 4.37114e-08 442.973 39)" stroke="black" stroke-opacity="0.5" stroke-width="2"/>
<line y1="-1" x2="45" y2="-1" transform="matrix(-4.37114e-08 1 1 4.37114e-08 433.066 23)" stroke="black" stroke-opacity="0.5" stroke-width="2"/>
<line y1="-1" x2="54" y2="-1" transform="matrix(-3.64262e-08 1 1 3.64262e-08 424.811 14)" stroke="black" stroke-opacity="0.5" stroke-width="2"/>
<line y1="-1" x2="45" y2="-1" transform="matrix(-4.37114e-08 1 1 4.37114e-08 416.556 23)" stroke="black" stroke-opacity="0.5" stroke-width="2"/>
<line y1="-1" x2="37" y2="-1" transform="matrix(-4.37114e-08 1 1 4.37114e-08 408.301 31)" stroke="black" stroke-opacity="0.5" stroke-width="2"/>
<line y1="-1" x2="68" y2="-1" transform="matrix(-4.37114e-08 1 1 4.37114e-08 400.046 0)" stroke="black" stroke-opacity="0.5" stroke-width="2"/>
<line y1="-1" x2="56" y2="-1" transform="matrix(-4.37114e-08 1 1 4.37114e-08 391.791 12)" stroke="black" stroke-opacity="0.5" stroke-width="2"/>
<line y1="-1" x2="29" y2="-1" transform="matrix(-4.37114e-08 1 1 4.37114e-08 383.536 39)" stroke="black" stroke-opacity="0.5" stroke-width="2"/>
<line y1="-1" x2="17.2941" y2="-1" transform="matrix(-5.30781e-08 1 1 3.59976e-08 527.174 50.7059)" stroke="black" stroke-opacity="0.5" stroke-width="2"/>
<line y1="-1" x2="23.8824" y2="-1" transform="matrix(-5.30781e-08 1 1 3.59976e-08 518.919 44.1176)" stroke="black" stroke-opacity="0.5" stroke-width="2"/>
<line y1="-1" x2="37.0588" y2="-1" transform="matrix(-5.30781e-08 1 1 3.59976e-08 509.013 30.9412)" stroke="black" stroke-opacity="0.5" stroke-width="2"/>
<line y1="-1" x2="44.4706" y2="-1" transform="matrix(-4.42318e-08 1 1 2.9998e-08 500.758 23.5294)" stroke="black" stroke-opacity="0.5" stroke-width="2"/>
<line y1="-1" x2="37.0588" y2="-1" transform="matrix(-5.30781e-08 1 1 3.59976e-08 492.503 30.9412)" stroke="black" stroke-opacity="0.5" stroke-width="2"/>
<line y1="-1" x2="30.4706" y2="-1" transform="matrix(-5.30781e-08 1 1 3.59976e-08 484.248 37.5294)" stroke="black" stroke-opacity="0.5" stroke-width="2"/>
<line y1="-1" x2="56" y2="-1" transform="matrix(-4.37114e-08 1 1 4.37114e-08 475.993 12)" stroke="black" stroke-opacity="0.5" stroke-width="2"/>
<line y1="-1" x2="46.1176" y2="-1" transform="matrix(-5.30781e-08 1 1 3.59976e-08 467.738 21.8823)" stroke="black" stroke-opacity="0.5" stroke-width="2"/>
<line y1="-1" x2="23.8824" y2="-1" transform="matrix(-5.30781e-08 1 1 3.59976e-08 459.483 44.1176)" stroke="black" stroke-opacity="0.5" stroke-width="2"/>
<line x1="533.128" y1="56.5735" x2="533.128" y2="68" stroke="black" stroke-opacity="0.5" stroke-width="2"/>
<line x1="541.383" y1="52.2206" x2="541.383" y2="68" stroke="black" stroke-opacity="0.5" stroke-width="2"/>
<line x1="551.289" y1="43.5147" x2="551.289" y2="68" stroke="black" stroke-opacity="0.5" stroke-width="2"/>
<line x1="559.544" y1="38.6177" x2="559.544" y2="68" stroke="black" stroke-opacity="0.5" stroke-width="2"/>
<line x1="567.799" y1="43.5147" x2="567.799" y2="68" stroke="black" stroke-opacity="0.5" stroke-width="2"/>
<line x1="576.054" y1="47.8677" x2="576.054" y2="68" stroke="black" stroke-opacity="0.5" stroke-width="2"/>
<line x1="584.309" y1="31" x2="584.309" y2="68" stroke="black" stroke-opacity="0.5" stroke-width="2"/>
<line x1="592.564" y1="37.5294" x2="592.564" y2="68" stroke="black" stroke-opacity="0.5" stroke-width="2"/>
<line x1="600.819" y1="52.2206" x2="600.819" y2="68" stroke="black" stroke-opacity="0.5" stroke-width="2"/>
<line x1="609.074" y1="60.5883" x2="609.074" y2="68" stroke="black" stroke-opacity="0.5" stroke-width="2"/>
<line x1="617.329" y1="57.7647" x2="617.329" y2="68" stroke="black" stroke-opacity="0.5" stroke-width="2"/>
<line x1="627.236" y1="52.1177" x2="627.236" y2="68" stroke="black" stroke-opacity="0.5" stroke-width="2"/>
<line x1="635.491" y1="48.9412" x2="635.491" y2="68" stroke="black" stroke-opacity="0.5" stroke-width="2"/>
<line x1="643.746" y1="52.1177" x2="643.746" y2="68" stroke="black" stroke-opacity="0.5" stroke-width="2"/>
<line x1="652.001" y1="54.9412" x2="652.001" y2="68" stroke="black" stroke-opacity="0.5" stroke-width="2"/>
<line x1="660.256" y1="44" x2="660.256" y2="68" stroke="black" stroke-opacity="0.5" stroke-width="2"/>
<line x1="668.511" y1="48.2353" x2="668.511" y2="68" stroke="black" stroke-opacity="0.5" stroke-width="2"/>
<line x1="676.766" y1="57.7647" x2="676.766" y2="68" stroke="black" stroke-opacity="0.5" stroke-width="2"/>
<line x1="685.021" y1="54.103" x2="685.021" y2="68" stroke="black" stroke-opacity="0.5" stroke-width="2"/>
<line x1="693.276" y1="48.8088" x2="693.276" y2="68" stroke="black" stroke-opacity="0.5" stroke-width="2"/>
<line x1="703.182" y1="38.2206" x2="703.182" y2="68" stroke="black" stroke-opacity="0.5" stroke-width="2"/>
<line x1="711.437" y1="32.2647" x2="711.437" y2="68" stroke="black" stroke-opacity="0.5" stroke-width="2"/>
<line x1="719.693" y1="38.2206" x2="719.693" y2="68" stroke="black" stroke-opacity="0.5" stroke-width="2"/>
<line x1="727.948" y1="43.5147" x2="727.948" y2="68" stroke="black" stroke-opacity="0.5" stroke-width="2"/>
<line x1="736.203" y1="23" x2="736.203" y2="68" stroke="black" stroke-opacity="0.5" stroke-width="2"/>
<line x1="744.458" y1="30.9412" x2="744.458" y2="68" stroke="black" stroke-opacity="0.5" stroke-width="2"/>
<line x1="752.713" y1="48.8088" x2="752.713" y2="68" stroke="black" stroke-opacity="0.5" stroke-width="2"/>
<line x1="760.968" y1="47" x2="760.968" y2="68" stroke="black" stroke-opacity="0.5" stroke-width="2"/>
<line x1="769.223" y1="39" x2="769.223" y2="68" stroke="black" stroke-opacity="0.5" stroke-width="2"/>
<line x1="779.129" y1="23" x2="779.129" y2="68" stroke="black" stroke-opacity="0.5" stroke-width="2"/>
<line x1="787.384" y1="14" x2="787.384" y2="68" stroke="black" stroke-opacity="0.5" stroke-width="2"/>
<line x1="795.639" y1="23" x2="795.639" y2="68" stroke="black" stroke-opacity="0.5" stroke-width="2"/>
<line x1="803.894" y1="31" x2="803.894" y2="68" stroke="black" stroke-opacity="0.5" stroke-width="2"/>
<line x1="812.149" y1="-4.37114e-08" x2="812.149" y2="68" stroke="black" stroke-opacity="0.5" stroke-width="2"/>
<line x1="820.405" y1="12" x2="820.405" y2="68" stroke="black" stroke-opacity="0.5" stroke-width="2"/>
<line x1="828.66" y1="39" x2="828.66" y2="68" stroke="black" stroke-opacity="0.5" stroke-width="2"/>
<line x1="836.915" y1="54.103" x2="836.915" y2="68" stroke="black" stroke-opacity="0.5" stroke-width="2"/>
<line x1="845.17" y1="48.8088" x2="845.17" y2="68" stroke="black" stroke-opacity="0.5" stroke-width="2"/>
<line x1="855.076" y1="38.2206" x2="855.076" y2="68" stroke="black" stroke-opacity="0.5" stroke-width="2"/>
<line x1="863.331" y1="32.2647" x2="863.331" y2="68" stroke="black" stroke-opacity="0.5" stroke-width="2"/>
<line x1="871.586" y1="38.2206" x2="871.586" y2="68" stroke="black" stroke-opacity="0.5" stroke-width="2"/>
<line x1="879.841" y1="43.5147" x2="879.841" y2="68" stroke="black" stroke-opacity="0.5" stroke-width="2"/>
<line x1="888.096" y1="23" x2="888.096" y2="68" stroke="black" stroke-opacity="0.5" stroke-width="2"/>
<line x1="896.351" y1="30.9412" x2="896.351" y2="68" stroke="black" stroke-opacity="0.5" stroke-width="2"/>
<line x1="904.606" y1="48.8088" x2="904.606" y2="68" stroke="black" stroke-opacity="0.5" stroke-width="2"/>
<line x1="912.862" y1="47" x2="912.862" y2="68" stroke="black" stroke-opacity="0.5" stroke-width="2"/>
<line x1="921.117" y1="39" x2="921.117" y2="68" stroke="black" stroke-opacity="0.5" stroke-width="2"/>
<line x1="931.023" y1="23" x2="931.023" y2="68" stroke="black" stroke-opacity="0.5" stroke-width="2"/>
<line x1="939.278" y1="14" x2="939.278" y2="68" stroke="black" stroke-opacity="0.5" stroke-width="2"/>
<line x1="947.533" y1="23" x2="947.533" y2="68" stroke="black" stroke-opacity="0.5" stroke-width="2"/>
<line x1="955.788" y1="31" x2="955.788" y2="68" stroke="black" stroke-opacity="0.5" stroke-width="2"/>
<line x1="964.043" y1="-4.37114e-08" x2="964.043" y2="68" stroke="black" stroke-opacity="0.5" stroke-width="2"/>
<line x1="972.298" y1="12" x2="972.298" y2="68" stroke="black" stroke-opacity="0.5" stroke-width="2"/>
<line x1="980.553" y1="39" x2="980.553" y2="68" stroke="black" stroke-opacity="0.5" stroke-width="2"/>
<line x1="988.808" y1="56.8823" x2="988.808" y2="68" stroke="black" stroke-opacity="0.5" stroke-width="2"/>
<line x1="997.063" y1="52.647" x2="997.063" y2="68" stroke="black" stroke-opacity="0.5" stroke-width="2"/>
<line x1="1006.97" y1="44.1765" x2="1006.97" y2="68" stroke="black" stroke-opacity="0.5" stroke-width="2"/>
<line x1="1015.22" y1="39.4117" x2="1015.22" y2="68" stroke="black" stroke-opacity="0.5" stroke-width="2"/>
<line x1="1023.48" y1="44.1765" x2="1023.48" y2="68" stroke="black" stroke-opacity="0.5" stroke-width="2"/>
<line x1="1031.73" y1="48.4117" x2="1031.73" y2="68" stroke="black" stroke-opacity="0.5" stroke-width="2"/>
<line x1="1039.99" y1="53.9999" x2="1039.99" y2="67.9999" stroke="black" stroke-opacity="0.5" stroke-width="2"/>
<line x1="1048.24" y1="55.9999" x2="1048.24" y2="67.9999" stroke="black" stroke-opacity="0.5" stroke-width="2"/>
<line x1="1056.5" y1="59.9999" x2="1056.5" y2="67.9999" stroke="black" stroke-opacity="0.5" stroke-width="2"/>
</svg>
