<svg width="206" height="38" viewBox="0 0 206 38" fill="none" xmlns="http://www.w3.org/2000/svg">
<path d="M0.828125 21.7188V21.3906C0.828125 20.151 1.00521 19.0104 1.35938 17.9688C1.71354 16.9167 2.23438 16.0052 2.92188 15.2344C3.60938 14.4635 4.45833 13.8646 5.46875 13.4375C6.47917 13 7.64583 12.7812 8.96875 12.7812C10.3021 12.7812 11.474 13 12.4844 13.4375C13.5052 13.8646 14.3594 14.4635 15.0469 15.2344C15.7344 16.0052 16.2552 16.9167 16.6094 17.9688C16.9635 19.0104 17.1406 20.151 17.1406 21.3906V21.7188C17.1406 22.9479 16.9635 24.0885 16.6094 25.1406C16.2552 26.1823 15.7344 27.0938 15.0469 27.875C14.3594 28.6458 13.5104 29.2448 12.5 29.6719C11.4896 30.099 10.3229 30.3125 9 30.3125C7.67708 30.3125 6.50521 30.099 5.48438 29.6719C4.46354 29.2448 3.60938 28.6458 2.92188 27.875C2.23438 27.0938 1.71354 26.1823 1.35938 25.1406C1.00521 24.0885 0.828125 22.9479 0.828125 21.7188ZM6.09375 21.3906V21.7188C6.09375 22.3542 6.14062 22.9479 6.23438 23.5C6.32812 24.0521 6.48438 24.5365 6.70312 24.9531C6.92188 25.3594 7.21875 25.6771 7.59375 25.9062C7.96875 26.1354 8.4375 26.25 9 26.25C9.55208 26.25 10.0104 26.1354 10.375 25.9062C10.75 25.6771 11.0469 25.3594 11.2656 24.9531C11.4844 24.5365 11.6406 24.0521 11.7344 23.5C11.8281 22.9479 11.875 22.3542 11.875 21.7188V21.3906C11.875 20.776 11.8281 20.1979 11.7344 19.6562C11.6406 19.1042 11.4844 18.6198 11.2656 18.2031C11.0469 17.776 10.75 17.4427 10.375 17.2031C10 16.9635 9.53125 16.8438 8.96875 16.8438C8.41667 16.8438 7.95312 16.9635 7.57812 17.2031C7.21354 17.4427 6.92188 17.776 6.70312 18.2031C6.48438 18.6198 6.32812 19.1042 6.23438 19.6562C6.14062 20.1979 6.09375 20.776 6.09375 21.3906ZM24.6562 16.7031V30H19.3906V13.0938H24.3281L24.6562 16.7031ZM24.0312 20.9688L22.7969 21C22.7969 19.7083 22.9531 18.5573 23.2656 17.5469C23.5781 16.526 24.0208 15.6615 24.5938 14.9531C25.1667 14.2448 25.849 13.7083 26.6406 13.3438C27.4427 12.9688 28.3333 12.7812 29.3125 12.7812C30.0938 12.7812 30.8073 12.8958 31.4531 13.125C32.1094 13.3542 32.6719 13.724 33.1406 14.2344C33.6198 14.7448 33.9844 15.4219 34.2344 16.2656C34.4948 17.099 34.625 18.1302 34.625 19.3594V30H29.3281V19.3438C29.3281 18.6667 29.2344 18.151 29.0469 17.7969C28.8594 17.4323 28.5885 17.1823 28.2344 17.0469C27.8802 16.9115 27.4479 16.8438 26.9375 16.8438C26.3958 16.8438 25.9375 16.9479 25.5625 17.1562C25.1875 17.3646 24.8854 17.6562 24.6562 18.0312C24.4375 18.3958 24.276 18.8281 24.1719 19.3281C24.0781 19.8281 24.0312 20.375 24.0312 20.9688ZM45.7344 30.3125C44.3594 30.3125 43.1302 30.099 42.0469 29.6719C40.9635 29.2344 40.0469 28.6354 39.2969 27.875C38.5573 27.1146 37.9896 26.2396 37.5938 25.25C37.2083 24.2604 37.0156 23.2135 37.0156 22.1094V21.5156C37.0156 20.276 37.1875 19.1302 37.5312 18.0781C37.875 17.0156 38.3854 16.0885 39.0625 15.2969C39.7396 14.5052 40.5885 13.8906 41.6094 13.4531C42.6302 13.0052 43.8177 12.7812 45.1719 12.7812C46.3698 12.7812 47.4427 12.974 48.3906 13.3594C49.3385 13.7448 50.1406 14.2969 50.7969 15.0156C51.4635 15.7344 51.9688 16.6042 52.3125 17.625C52.6667 18.6458 52.8438 19.7917 52.8438 21.0625V23.2031H39.0312V19.9062H47.7031V19.5C47.7135 18.9375 47.6146 18.4583 47.4062 18.0625C47.2083 17.6667 46.9167 17.3646 46.5312 17.1562C46.1458 16.9479 45.6771 16.8438 45.125 16.8438C44.5521 16.8438 44.0781 16.9688 43.7031 17.2188C43.3385 17.4688 43.0521 17.8125 42.8438 18.25C42.6458 18.6771 42.5052 19.1719 42.4219 19.7344C42.3385 20.2969 42.2969 20.8906 42.2969 21.5156V22.1094C42.2969 22.7344 42.3802 23.3021 42.5469 23.8125C42.724 24.3229 42.974 24.7604 43.2969 25.125C43.6302 25.4792 44.026 25.7552 44.4844 25.9531C44.9531 26.151 45.4844 26.25 46.0781 26.25C46.7969 26.25 47.5052 26.1146 48.2031 25.8438C48.901 25.5729 49.5 25.125 50 24.5L52.3906 27.3438C52.0469 27.8333 51.5573 28.3073 50.9219 28.7656C50.2969 29.224 49.5469 29.599 48.6719 29.8906C47.7969 30.1719 46.8177 30.3125 45.7344 30.3125Z" fill="black"/>
<path d="M63.7969 16.6719H64.7969V16.6261L64.7927 16.5806L63.7969 16.6719ZM63.7969 30V31H64.7969V30H63.7969ZM58.5312 30H57.5312V31H58.5312V30ZM58.5312 13.0938V12.0938H57.5312V13.0938H58.5312ZM63.4688 13.0938L64.4646 13.0024L64.3812 12.0938H63.4688V13.0938ZM63.1562 20.9688L63.1822 21.9684L64.1562 21.9431V20.9688H63.1562ZM61.9531 21H60.9531V22.0263L61.9791 21.9997L61.9531 21ZM65.6562 13.3906L65.209 12.4962L65.2044 12.4985L65.6562 13.3906ZM70.4844 13.125L70.1297 14.06L70.1368 14.0627L70.1439 14.0653L70.4844 13.125ZM72.0469 14.1719L71.3083 14.8462L71.3158 14.8542L72.0469 14.1719ZM73.0469 16.0156L72.0894 16.3042L72.0918 16.3121L72.0943 16.3199L73.0469 16.0156ZM73.4062 30V31H74.4062V30H73.4062ZM68.1406 30H67.1406V31H68.1406V30ZM67.8906 17.7656L66.9715 18.1595L66.9762 18.1705L66.9812 18.1814L67.8906 17.7656ZM64.8594 17.1562L64.3632 16.288L64.8594 17.1562ZM63.9219 18.0312L63.1005 17.4608L63.0971 17.4657L63.9219 18.0312ZM63.3438 19.3281L62.3785 19.0667L62.376 19.0761L62.3736 19.0856L63.3438 19.3281ZM72.8125 20.9688L72.8338 21.9685L73.8125 21.9477V20.9688H72.8125ZM71.3438 21H70.3438V22.0215L71.365 21.9998L71.3438 21ZM71.7344 17.7188L70.7691 17.4573L70.7667 17.4667L71.7344 17.7188ZM72.9375 15.1094L72.1307 14.5185L72.1253 14.526L72.9375 15.1094ZM81.5469 14.2344L80.8103 14.9108L81.5469 14.2344ZM82.6406 16.2656L81.6851 16.5605L81.6861 16.5639L82.6406 16.2656ZM83.0312 30V31H84.0312V30H83.0312ZM77.75 30H76.75V31H77.75V30ZM77.5 17.7812L76.5809 18.1752L76.5877 18.1912L76.5952 18.207L77.5 17.7812ZM76.8125 17.0469L76.4034 17.9594L76.4167 17.9653L76.4301 17.9709L76.8125 17.0469ZM73.5156 18.0312L72.6836 17.4765L72.6799 17.4821L73.5156 18.0312ZM72.9844 19.3281L73.9591 19.5515L72.9844 19.3281ZM62.7969 16.6719V30H64.7969V16.6719H62.7969ZM63.7969 29H58.5312V31H63.7969V29ZM59.5312 30V13.0938H57.5312V30H59.5312ZM58.5312 14.0938H63.4688V12.0938H58.5312V14.0938ZM62.4729 13.1851L62.8011 16.7632L64.7927 16.5806L64.4646 13.0024L62.4729 13.1851ZM63.1303 19.9691L61.9272 20.0003L61.9791 21.9997L63.1822 21.9684L63.1303 19.9691ZM62.9531 21C62.9531 19.8912 63.0844 18.8898 63.3377 17.9895L61.4123 17.448C61.1031 18.5477 60.9531 19.7338 60.9531 21H62.9531ZM63.3377 17.9895C63.5898 17.0929 63.9563 16.3373 64.4264 15.7076L62.8236 14.5112C62.1895 15.3607 61.7227 16.3446 61.4123 17.448L63.3377 17.9895ZM64.4264 15.7076C64.8887 15.0882 65.4473 14.6174 66.1081 14.2827L65.2044 12.4985C64.261 12.9764 63.4655 13.6514 62.8236 14.5112L64.4264 15.7076ZM66.1035 14.2851C66.7554 13.9591 67.5352 13.7812 68.4688 13.7812V11.7812C67.2773 11.7812 66.1821 12.0097 65.209 12.4962L66.1035 14.2851ZM68.4688 13.7812C69.1045 13.7812 69.654 13.8795 70.1297 14.06L70.839 12.19C70.1064 11.9121 69.3122 11.7812 68.4688 11.7812V13.7812ZM70.1439 14.0653C70.5943 14.2283 70.979 14.4853 71.3084 14.8461L72.7854 13.4976C72.2398 12.9001 71.5828 12.4592 70.8248 12.1847L70.1439 14.0653ZM71.3158 14.8542C71.6267 15.1872 71.8942 15.6563 72.0894 16.3042L74.0043 15.7271C73.7412 14.8541 73.3421 14.094 72.7779 13.4896L71.3158 14.8542ZM72.0943 16.3199C72.2939 16.9448 72.4062 17.7375 72.4062 18.7188H74.4062C74.4062 17.5958 74.279 16.5865 73.9995 15.7113L72.0943 16.3199ZM72.4062 18.7188V30H74.4062V18.7188H72.4062ZM73.4062 29H68.1406V31H73.4062V29ZM69.1406 30V19.3906H67.1406V30H69.1406ZM69.1406 19.3906C69.1406 18.6245 69.0565 17.9107 68.8001 17.3499L66.9812 18.1814C67.0581 18.3498 67.1406 18.7192 67.1406 19.3906H69.1406ZM68.8098 17.3717C68.574 16.8215 68.1785 16.3526 67.5855 16.1072L66.8208 17.9553C66.8319 17.9599 66.8948 17.9806 66.9715 18.1595L68.8098 17.3717ZM67.5855 16.1072C67.1287 15.9182 66.6206 15.8438 66.0938 15.8438V17.8438C66.4419 17.8438 66.6734 17.8943 66.8208 17.9553L67.5855 16.1072ZM66.0938 15.8438C65.4778 15.8438 64.8925 15.9856 64.3632 16.288L65.3555 18.0245C65.5554 17.9103 65.7931 17.8438 66.0938 17.8438V15.8438ZM64.3632 16.288C63.8584 16.5765 63.4383 16.9744 63.1005 17.4609L64.7432 18.6016C64.9263 18.3381 65.1311 18.1527 65.3555 18.0245L64.3632 16.288ZM63.0971 17.4657C62.7737 17.9375 62.5384 18.4764 62.3785 19.0667L64.309 19.5895C64.4199 19.1799 64.5701 18.8542 64.7466 18.5968L63.0971 17.4657ZM62.3736 19.0856C62.226 19.6758 62.1562 20.3053 62.1562 20.9688H64.1562C64.1562 20.4447 64.2115 19.9804 64.3139 19.5707L62.3736 19.0856ZM72.7912 19.969L71.3225 20.0002L71.365 21.9998L72.8338 21.9685L72.7912 19.969ZM72.3438 21C72.3438 19.8852 72.466 18.8773 72.7021 17.9708L70.7667 17.4667C70.4819 18.5602 70.3438 19.7398 70.3438 21H72.3438ZM72.6996 17.9802C72.9434 17.08 73.2973 16.3226 73.7497 15.6928L72.1253 14.526C71.5152 15.3753 71.067 16.3575 70.7691 17.4573L72.6996 17.9802ZM73.7443 15.7002C74.1949 15.085 74.7461 14.6165 75.405 14.2827L74.5013 12.4985C73.556 12.9773 72.7635 13.6546 72.1307 14.5185L73.7443 15.7002ZM75.405 14.2827C76.0437 13.9592 76.8161 13.7812 77.75 13.7812V11.7812C76.5589 11.7812 75.4667 12.0095 74.5013 12.4985L75.405 14.2827ZM77.75 13.7812C78.421 13.7812 79.0147 13.8808 79.5406 14.0674L80.2094 12.1826C79.4437 11.9109 78.6207 11.7812 77.75 11.7812V13.7812ZM79.5406 14.0674C80.0309 14.2414 80.4506 14.5191 80.8103 14.9108L82.2834 13.558C81.7056 12.9288 81.0108 12.4669 80.2094 12.1826L79.5406 14.0674ZM80.8103 14.9108C81.1551 15.2862 81.4569 15.821 81.6851 16.5605L83.5961 15.9707C83.3036 15.0227 82.8762 14.2034 82.2834 13.558L80.8103 14.9108ZM81.6861 16.5639C81.9069 17.2702 82.0312 18.1936 82.0312 19.3594H84.0312C84.0312 18.0669 83.8952 16.9277 83.5951 15.9674L81.6861 16.5639ZM82.0312 19.3594V30H84.0312V19.3594H82.0312ZM83.0312 29H77.75V31H83.0312V29ZM78.75 30V19.3594H76.75V30H78.75ZM78.75 19.3594C78.75 18.6121 78.6656 17.9095 78.4048 17.3555L76.5952 18.207C76.6678 18.3613 76.75 18.7109 76.75 19.3594H78.75ZM78.4191 17.3873C78.1833 16.8371 77.7879 16.3682 77.1949 16.1229L76.4301 17.9709C76.4413 17.9755 76.5042 17.9962 76.5809 18.1752L78.4191 17.3873ZM77.2216 16.1344C76.7621 15.9284 76.2567 15.8438 75.7344 15.8438V17.8438C76.0453 17.8438 76.2587 17.8945 76.4034 17.9594L77.2216 16.1344ZM75.7344 15.8438C75.0936 15.8438 74.4835 15.9782 73.9414 16.288L74.9336 18.0245C75.1206 17.9176 75.3751 17.8438 75.7344 17.8438V15.8438ZM73.9414 16.288C73.4322 16.5789 73.0132 16.9821 72.6836 17.4765L74.3477 18.586C74.518 18.3304 74.7136 18.1502 74.9336 18.0245L73.9414 16.288ZM72.6799 17.4821C72.3646 17.9619 72.1462 18.5087 72.0096 19.1047L73.9591 19.5515C74.0517 19.1475 74.1875 18.8298 74.3513 18.5804L72.6799 17.4821ZM72.0096 19.1047C71.8759 19.6884 71.8125 20.3113 71.8125 20.9688H73.8125C73.8125 20.4387 73.8637 19.9678 73.9591 19.5515L72.0096 19.1047ZM93.9844 16.75L93.4229 17.5775L93.4332 17.5845L93.4436 17.5912L93.9844 16.75ZM90.9375 18.2969V19.2969H91.9375V18.2969H90.9375ZM85.6719 18.2969H84.6719V19.2969H85.6719V18.2969ZM86.1875 16.125L85.3014 15.6615L85.2987 15.6667L86.1875 16.125ZM87.6875 14.3594L87.0814 13.5639L87.0753 13.5687L87.6875 14.3594ZM90.0312 13.2031L90.3176 14.1613L90.3246 14.1591L90.0312 13.2031ZM96.6875 13.4531L96.2958 14.3732L96.299 14.3746L96.6875 13.4531ZM99.2031 15.4688L98.3785 16.0345L98.3816 16.039L99.2031 15.4688ZM100.312 28.25L99.3355 28.4632L99.3363 28.4669L100.312 28.25ZM100.844 29.7344H101.844V29.483L101.725 29.2616L100.844 29.7344ZM100.844 30V31H101.844V30H100.844ZM95.5625 30L94.661 30.4327L94.9333 31H95.5625V30ZM95 28.0938L94.0112 28.2428L94.0123 28.2505L94.0136 28.2581L95 28.0938ZM95.4688 19.6719L96.4687 19.6608L96.4577 18.6719H95.4688V19.6719ZM95.5 22.4844V23.4844H96.5112L96.4999 22.4733L95.5 22.4844ZM91.9219 22.6875L91.5553 21.757L91.5455 21.761L91.9219 22.6875ZM91.1094 23.25L90.3548 22.5938L90.3526 22.5964L91.1094 23.25ZM90.6719 24.0312L89.7198 23.7252L89.7148 23.7408L89.7104 23.7565L90.6719 24.0312ZM90.7656 25.7969L89.9018 26.3007L89.9144 26.3223L89.928 26.3431L90.7656 25.7969ZM93.75 26.2344L94.2241 27.1149L94.2319 27.1106L93.75 26.2344ZM95.0312 24.5L95.9125 24.0274L94.0312 24.5H95.0312ZM96.1875 26.6562L97.0819 27.1035L97.3136 26.6402L97.0688 26.1837L96.1875 26.6562ZM95.4688 27.9219L94.6242 27.3863L94.6195 27.3938L94.615 27.4013L95.4688 27.9219ZM94.4844 29.1094L95.161 29.8457L95.1618 29.8449L94.4844 29.1094ZM93.0625 29.9844L93.4249 30.9164L93.4324 30.9135L93.4398 30.9105L93.0625 29.9844ZM88.1406 29.6719L87.6977 30.5685L87.702 30.5705L88.1406 29.6719ZM86.0625 27.8906L85.2339 28.4505L85.2375 28.4557L86.0625 27.8906ZM85.75 22.8906L84.8448 22.4655L84.8396 22.4768L85.75 22.8906ZM95.8281 25.75V18.7812H93.8281V25.75H95.8281ZM95.8281 18.7812C95.8281 18.2121 95.7482 17.6698 95.5554 17.1804L93.6946 17.9134C93.7726 18.1114 93.8281 18.3921 93.8281 18.7812H95.8281ZM95.5554 17.1804C95.3484 16.655 95.0051 16.2174 94.5251 15.9088L93.4436 17.5912C93.547 17.6576 93.6307 17.7513 93.6946 17.9134L95.5554 17.1804ZM94.5459 15.9225C94.0356 15.5762 93.4269 15.4531 92.8125 15.4531V17.4531C93.1772 17.4531 93.3499 17.5279 93.4229 17.5775L94.5459 15.9225ZM92.8125 15.4531C92.3055 15.4531 91.8109 15.5396 91.3631 15.7552L92.2307 17.5573C92.3453 17.502 92.5278 17.4531 92.8125 17.4531V15.4531ZM91.3631 15.7552C90.8946 15.9808 90.5233 16.3319 90.2758 16.7915L92.0367 17.7397C92.0809 17.6577 92.1366 17.6025 92.2307 17.5573L91.3631 15.7552ZM90.2758 16.7915C90.0286 17.2505 89.9375 17.7708 89.9375 18.2969H91.9375C91.9375 17.9896 91.9922 17.8224 92.0367 17.7397L90.2758 16.7915ZM90.9375 17.2969H85.6719V19.2969H90.9375V17.2969ZM86.6719 18.2969C86.6719 17.6682 86.8087 17.1023 87.0763 16.5833L85.2987 15.6667C84.8788 16.4811 84.6719 17.363 84.6719 18.2969H86.6719ZM87.0736 16.5885C87.3565 16.0476 87.7597 15.5682 88.2997 15.1501L87.0753 13.5687C86.3237 14.1506 85.7268 14.8483 85.3014 15.6615L87.0736 16.5885ZM88.2935 15.1548C88.841 14.7377 89.5101 14.4026 90.3176 14.1613L89.7449 12.245C88.7399 12.5454 87.8465 12.981 87.0815 13.5639L88.2935 15.1548ZM90.3246 14.1591C91.1314 13.9116 92.0514 13.7812 93.0938 13.7812V11.7812C91.8861 11.7812 90.7644 11.9322 89.7379 12.2471L90.3246 14.1591ZM93.0938 13.7812C94.3261 13.7812 95.3873 13.9864 96.2958 14.3732L97.0792 12.533C95.8835 12.024 94.5489 11.7812 93.0938 11.7812V13.7812ZM96.299 14.3746C97.1964 14.7529 97.879 15.3064 98.3785 16.0345L100.028 14.903C99.2981 13.8395 98.3036 13.0492 97.076 12.5317L96.299 14.3746ZM98.3816 16.039C98.8541 16.7197 99.125 17.6219 99.125 18.8125H101.125C101.125 17.3156 100.781 15.9887 100.025 14.8985L98.3816 16.039ZM99.125 18.8125V25.7344H101.125V18.8125H99.125ZM99.125 25.7344C99.125 26.8592 99.1872 27.7836 99.3355 28.4632L101.29 28.0368C101.188 27.5706 101.125 26.8179 101.125 25.7344H99.125ZM99.3363 28.4669C99.4775 29.1024 99.683 29.6861 99.9626 30.2072L101.725 29.2616C101.546 28.9285 101.397 28.5226 101.289 28.0331L99.3363 28.4669ZM99.8438 29.7344V30H101.844V29.7344H99.8438ZM100.844 29H95.5625V31H100.844V29ZM96.464 29.5673C96.2654 29.1534 96.1005 28.6139 95.9864 27.9294L94.0136 28.2581C94.1495 29.0736 94.3596 29.805 94.661 30.4327L96.464 29.5673ZM95.9888 27.9447C95.882 27.2357 95.8281 26.5043 95.8281 25.75H93.8281C93.8281 26.5998 93.8888 27.431 94.0112 28.2428L95.9888 27.9447ZM94.4688 19.683L94.5001 22.4955L96.4999 22.4733L96.4687 19.6608L94.4688 19.683ZM95.5 21.4844H93.1719V23.4844H95.5V21.4844ZM93.1719 21.4844C92.5954 21.4844 92.047 21.5634 91.5554 21.7571L92.2884 23.6179C92.4843 23.5408 92.7692 23.4844 93.1719 23.4844V21.4844ZM91.5455 21.761C91.0862 21.9476 90.6792 22.2207 90.3548 22.5938L91.864 23.9062C91.9562 23.8001 92.0909 23.6982 92.2983 23.614L91.5455 21.761ZM90.3526 22.5964C90.0658 22.9284 89.8542 23.3073 89.7198 23.7252L91.6239 24.3373C91.6771 24.1718 91.7571 24.03 91.8662 23.9036L90.3526 22.5964ZM89.7104 23.7565C89.5999 24.1431 89.5469 24.5433 89.5469 24.9531H91.5469C91.5469 24.7171 91.5772 24.5027 91.6334 24.306L89.7104 23.7565ZM89.5469 24.9531C89.5469 25.4281 89.6597 25.8857 89.9018 26.3007L91.6294 25.293C91.5799 25.2081 91.5469 25.1032 91.5469 24.9531H89.5469ZM89.928 26.3431C90.1808 26.7307 90.5204 27.034 90.9293 27.2466L91.852 25.4722C91.7401 25.414 91.663 25.3422 91.6032 25.2506L89.928 26.3431ZM90.9293 27.2466C91.346 27.4633 91.7985 27.5625 92.2656 27.5625V25.5625C92.0869 25.5625 91.956 25.5263 91.852 25.4722L90.9293 27.2466ZM92.2656 27.5625C92.9716 27.5625 93.6386 27.4301 94.2241 27.1148L93.2759 25.3539C93.0489 25.4761 92.7263 25.5625 92.2656 25.5625V27.5625ZM94.2319 27.1106C94.7573 26.8216 95.2062 26.4467 95.531 25.9671L93.8752 24.8454C93.7626 25.0116 93.5761 25.1888 93.2681 25.3582L94.2319 27.1106ZM95.531 25.9671C95.8199 25.5406 96.0312 25.0449 96.0312 24.5H94.0312C94.0312 24.5176 94.0238 24.626 93.8752 24.8454L95.531 25.9671ZM94.15 24.9726L95.3062 27.1288L97.0688 26.1837L95.9125 24.0274L94.15 24.9726ZM95.2931 26.209C95.1011 26.593 94.8785 26.9854 94.6242 27.3863L96.3133 28.4574C96.6007 28.0042 96.8572 27.5528 97.0819 27.1035L95.2931 26.209ZM94.615 27.4013C94.4065 27.7431 94.1394 28.0676 93.8069 28.3738L95.1618 29.8449C95.621 29.422 96.0101 28.9549 96.3225 28.4425L94.615 27.4013ZM93.8078 28.373C93.5229 28.6348 93.1548 28.867 92.6852 29.0583L93.4398 30.9105C94.0952 30.6435 94.6751 30.2922 95.161 29.8457L93.8078 28.373ZM92.7001 29.0524C92.2842 29.2141 91.7322 29.3125 91.0156 29.3125V31.3125C91.9032 31.3125 92.7158 31.1922 93.4249 30.9164L92.7001 29.0524ZM91.0156 29.3125C90.1151 29.3125 89.3082 29.129 88.5793 28.7732L87.702 30.5705C88.723 31.0689 89.8328 31.3125 91.0156 31.3125V29.3125ZM88.5835 28.7753C87.8652 28.4205 87.3069 27.9379 86.8875 27.3255L85.2375 28.4557C85.8597 29.3642 86.6869 30.0691 87.6977 30.5685L88.5835 28.7753ZM86.8911 27.3308C86.4904 26.7378 86.2812 26.0505 86.2812 25.2344H84.2812C84.2812 26.4182 84.5929 27.5018 85.2339 28.4505L86.8911 27.3308ZM86.2812 25.2344C86.2812 24.4796 86.4156 23.8429 86.6604 23.3044L84.8396 22.4768C84.4594 23.3133 84.2812 24.2391 84.2812 25.2344H86.2812ZM86.6551 23.3158C86.9036 22.7867 87.2778 22.3304 87.799 21.9437L86.6073 20.3375C85.8367 20.9092 85.2422 21.6196 84.8449 22.4655L86.6551 23.3158ZM87.799 21.9437C88.314 21.5616 89.0076 21.2437 89.9144 21.017L89.4293 19.0767C88.3362 19.35 87.3839 19.7613 86.6073 20.3375L87.799 21.9437ZM89.9144 21.017C90.8148 20.7919 91.9068 20.6719 93.2031 20.6719V18.6719C91.7911 18.6719 90.5289 18.8018 89.4293 19.0767L89.9144 21.017ZM93.2031 20.6719H95.4688V18.6719H93.2031V20.6719ZM108.219 16.7031H109.219V16.6578L109.215 16.6126L108.219 16.7031ZM108.219 30V31H109.219V30H108.219ZM102.953 30H101.953V31H102.953V30ZM102.953 13.0938V12.0938H101.953V13.0938H102.953ZM107.891 13.0938L108.887 13.0032L108.804 12.0938H107.891V13.0938ZM107.594 20.9688L107.619 21.9684L108.594 21.9438V20.9688H107.594ZM106.359 21H105.359V22.0256L106.385 21.9997L106.359 21ZM106.828 17.5469L107.783 17.8423L107.784 17.8396L106.828 17.5469ZM110.203 13.3438L110.621 14.2521L110.627 14.2496L110.203 13.3438ZM115.016 13.125L114.681 14.0674L114.686 14.0691L115.016 13.125ZM116.703 14.2344L115.967 14.9108L115.974 14.9188L116.703 14.2344ZM117.797 16.2656L116.838 16.5497L116.84 16.5568L116.842 16.5639L117.797 16.2656ZM118.188 30V31H119.188V30H118.188ZM112.891 30H111.891V31H112.891V30ZM112.609 17.7969L111.72 18.2543L111.726 18.2648L112.609 17.7969ZM108.219 18.0312L107.365 17.5098L107.361 17.5168L108.219 18.0312ZM107.734 19.3281L106.755 19.1242L106.753 19.134L106.752 19.1438L107.734 19.3281ZM107.219 16.7031V30H109.219V16.7031H107.219ZM108.219 29H102.953V31H108.219V29ZM103.953 30V13.0938H101.953V30H103.953ZM102.953 14.0938H107.891V12.0938H102.953V14.0938ZM106.895 13.1843L107.223 16.7937L109.215 16.6126L108.887 13.0032L106.895 13.1843ZM107.568 19.9691L106.334 20.0003L106.385 21.9997L107.619 21.9684L107.568 19.9691ZM107.359 21C107.359 19.7872 107.506 18.7386 107.783 17.8423L105.873 17.2514C105.525 18.3759 105.359 19.6295 105.359 21H107.359ZM107.784 17.8396C108.066 16.9205 108.454 16.1752 108.934 15.582L107.379 14.3243C106.713 15.1477 106.216 16.1316 105.872 17.2542L107.784 17.8396ZM108.934 15.582C109.415 14.9876 109.976 14.5494 110.621 14.2521L109.785 12.4354C108.847 12.8673 108.044 13.502 107.379 14.3243L108.934 15.582ZM110.627 14.2496C111.283 13.9429 112.027 13.7812 112.875 13.7812V11.7812C111.765 11.7812 110.728 11.9946 109.78 12.4379L110.627 14.2496ZM112.875 13.7812C113.558 13.7812 114.157 13.8813 114.681 14.0674L115.35 12.1826C114.583 11.9104 113.754 11.7812 112.875 11.7812V13.7812ZM114.686 14.0691C115.187 14.2441 115.61 14.5221 115.967 14.9108L117.44 13.558C116.859 12.9258 116.157 12.4642 115.345 12.1809L114.686 14.0691ZM115.974 14.9188C116.323 15.2901 116.621 15.818 116.838 16.5497L118.756 15.9815C118.472 15.0257 118.042 14.1995 117.432 13.5499L115.974 14.9188ZM116.842 16.5639C117.063 17.2702 117.188 18.1936 117.188 19.3594H119.188C119.188 18.0669 119.051 16.9277 118.751 15.9674L116.842 16.5639ZM117.188 19.3594V30H119.188V19.3594H117.188ZM118.188 29H112.891V31H118.188V29ZM113.891 30V19.3438H111.891V30H113.891ZM113.891 19.3438C113.891 18.6021 113.793 17.8946 113.493 17.329L111.726 18.2648C111.801 18.4075 111.891 18.7313 111.891 19.3438H113.891ZM113.499 17.3395C113.208 16.7753 112.758 16.3437 112.154 16.1128L111.44 17.9809C111.544 18.0209 111.635 18.0893 111.72 18.2542L113.499 17.3395ZM112.154 16.1128C111.654 15.9216 111.093 15.8438 110.5 15.8438V17.8438C110.928 17.8438 111.232 17.9013 111.44 17.9809L112.154 16.1128ZM110.5 15.8438C109.832 15.8438 109.197 15.9723 108.639 16.2821L109.611 18.0304C109.803 17.9236 110.084 17.8438 110.5 17.8438V15.8438ZM108.639 16.2821C108.11 16.5764 107.682 16.9912 107.365 17.5098L109.072 18.5527C109.213 18.3213 109.39 18.1528 109.611 18.0304L108.639 16.2821ZM107.361 17.5168C107.075 17.9944 106.878 18.536 106.755 19.1242L108.713 19.5321C108.799 19.1203 108.925 18.7972 109.076 18.5457L107.361 17.5168ZM106.752 19.1438C106.645 19.7137 106.594 20.3231 106.594 20.9688H108.594C108.594 20.4269 108.637 19.9426 108.717 19.5124L106.752 19.1438Z" fill="black" fill-opacity="0.7"/>
<path d="M124.531 6H129.797V25.8438L129.25 30H124.531V6ZM140.172 21.3594V21.6875C140.172 22.9688 140.042 24.1354 139.781 25.1875C139.521 26.2396 139.12 27.151 138.578 27.9219C138.036 28.6823 137.354 29.2708 136.531 29.6875C135.708 30.1042 134.734 30.3125 133.609 30.3125C132.589 30.3125 131.714 30.0938 130.984 29.6562C130.255 29.2083 129.646 28.5938 129.156 27.8125C128.667 27.0208 128.271 26.1094 127.969 25.0781C127.667 24.0365 127.427 22.9219 127.25 21.7344V21.3438C127.427 20.1667 127.667 19.0625 127.969 18.0312C128.271 16.9896 128.667 16.0781 129.156 15.2969C129.646 14.5052 130.25 13.8906 130.969 13.4531C131.698 13.0052 132.568 12.7812 133.578 12.7812C134.714 12.7812 135.693 12.9948 136.516 13.4219C137.349 13.849 138.036 14.4479 138.578 15.2188C139.12 15.9896 139.521 16.8958 139.781 17.9375C140.042 18.9792 140.172 20.1198 140.172 21.3594ZM134.906 21.6875V21.3594C134.906 20.7448 134.87 20.1667 134.797 19.625C134.724 19.0833 134.594 18.6042 134.406 18.1875C134.219 17.7708 133.953 17.4427 133.609 17.2031C133.266 16.9635 132.818 16.8438 132.266 16.8438C131.703 16.8438 131.229 16.9375 130.844 17.125C130.469 17.3125 130.167 17.5833 129.938 17.9375C129.719 18.2812 129.562 18.7083 129.469 19.2188C129.375 19.7188 129.333 20.2865 129.344 20.9219V22.1562C129.323 23.0208 129.401 23.7604 129.578 24.375C129.755 24.9896 130.062 25.4583 130.5 25.7812C130.938 26.1042 131.536 26.2656 132.297 26.2656C132.859 26.2656 133.312 26.1562 133.656 25.9375C134.01 25.7188 134.276 25.4062 134.453 25C134.63 24.5938 134.75 24.1094 134.812 23.5469C134.875 22.9844 134.906 22.3646 134.906 21.6875ZM147.828 17.2812V30H142.562V13.0938H147.484L147.828 17.2812ZM152.828 12.9688L152.734 17.8594C152.526 17.8385 152.245 17.8125 151.891 17.7812C151.536 17.75 151.24 17.7344 151 17.7344C150.385 17.7344 149.854 17.8073 149.406 17.9531C148.969 18.0885 148.604 18.2969 148.312 18.5781C148.031 18.849 147.823 19.1927 147.688 19.6094C147.562 20.026 147.505 20.5104 147.516 21.0625L146.562 20.4375C146.562 19.3021 146.672 18.2708 146.891 17.3438C147.12 16.4062 147.443 15.599 147.859 14.9219C148.276 14.2344 148.781 13.7083 149.375 13.3438C149.969 12.9688 150.635 12.7812 151.375 12.7812C151.635 12.7812 151.891 12.7969 152.141 12.8281C152.401 12.8594 152.63 12.9062 152.828 12.9688ZM162.953 25.75V18.7812C162.953 18.3021 162.885 17.8906 162.75 17.5469C162.615 17.2031 162.401 16.9375 162.109 16.75C161.818 16.5521 161.427 16.4531 160.938 16.4531C160.542 16.4531 160.203 16.5208 159.922 16.6562C159.641 16.7917 159.427 16.9948 159.281 17.2656C159.135 17.5365 159.062 17.8802 159.062 18.2969H153.797C153.797 17.5156 153.969 16.7917 154.312 16.125C154.667 15.4479 155.167 14.8594 155.812 14.3594C156.469 13.8594 157.25 13.474 158.156 13.2031C159.073 12.9219 160.094 12.7812 161.219 12.7812C162.562 12.7812 163.76 13.0052 164.812 13.4531C165.875 13.901 166.714 14.5729 167.328 15.4688C167.943 16.3542 168.25 17.4688 168.25 18.8125V25.7344C168.25 26.8385 168.312 27.6771 168.438 28.25C168.562 28.8125 168.74 29.3073 168.969 29.7344V30H163.688C163.438 29.4792 163.25 28.8438 163.125 28.0938C163.01 27.3333 162.953 26.5521 162.953 25.75ZM163.594 19.6719L163.625 22.4844H161.297C160.807 22.4844 160.391 22.5521 160.047 22.6875C159.714 22.8229 159.443 23.0104 159.234 23.25C159.036 23.4792 158.891 23.7396 158.797 24.0312C158.714 24.3229 158.672 24.6302 158.672 24.9531C158.672 25.2656 158.745 25.5469 158.891 25.7969C159.047 26.0365 159.255 26.224 159.516 26.3594C159.776 26.4948 160.068 26.5625 160.391 26.5625C160.974 26.5625 161.469 26.4531 161.875 26.2344C162.292 26.0052 162.609 25.7292 162.828 25.4062C163.047 25.0833 163.156 24.7812 163.156 24.5L164.312 26.6562C164.104 27.0729 163.865 27.4948 163.594 27.9219C163.333 28.349 163.005 28.7448 162.609 29.1094C162.224 29.4635 161.75 29.7552 161.188 29.9844C160.625 30.2031 159.943 30.3125 159.141 30.3125C158.099 30.3125 157.141 30.099 156.266 29.6719C155.401 29.2448 154.708 28.651 154.188 27.8906C153.667 27.1198 153.406 26.2344 153.406 25.2344C153.406 24.3594 153.562 23.5781 153.875 22.8906C154.198 22.2031 154.682 21.6198 155.328 21.1406C155.974 20.6615 156.797 20.2969 157.797 20.0469C158.797 19.7969 159.974 19.6719 161.328 19.6719H163.594ZM176.344 16.7031V30H171.078V13.0938H176.016L176.344 16.7031ZM175.719 20.9688L174.484 21C174.484 19.7083 174.641 18.5573 174.953 17.5469C175.266 16.526 175.708 15.6615 176.281 14.9531C176.854 14.2448 177.536 13.7083 178.328 13.3438C179.13 12.9688 180.021 12.7812 181 12.7812C181.781 12.7812 182.495 12.8958 183.141 13.125C183.797 13.3542 184.359 13.724 184.828 14.2344C185.307 14.7448 185.672 15.4219 185.922 16.2656C186.182 17.099 186.312 18.1302 186.312 19.3594V30H181.016V19.3438C181.016 18.6667 180.922 18.151 180.734 17.7969C180.547 17.4323 180.276 17.1823 179.922 17.0469C179.568 16.9115 179.135 16.8438 178.625 16.8438C178.083 16.8438 177.625 16.9479 177.25 17.1562C176.875 17.3646 176.573 17.6562 176.344 18.0312C176.125 18.3958 175.964 18.8281 175.859 19.3281C175.766 19.8281 175.719 20.375 175.719 20.9688ZM198.953 26.125V6H204.25V30H199.5L198.953 26.125ZM188.578 21.75V21.4219C188.578 20.1406 188.719 18.974 189 17.9219C189.281 16.8594 189.698 15.9479 190.25 15.1875C190.802 14.4167 191.49 13.8229 192.312 13.4062C193.135 12.9896 194.083 12.7812 195.156 12.7812C196.115 12.7812 196.953 13.0052 197.672 13.4531C198.391 13.8906 199.005 14.5052 199.516 15.2969C200.026 16.0885 200.443 17.0156 200.766 18.0781C201.089 19.1302 201.333 20.2656 201.5 21.4844V21.875C201.333 23.0208 201.089 24.1042 200.766 25.125C200.443 26.1354 200.026 27.0312 199.516 27.8125C199.005 28.5938 198.385 29.2083 197.656 29.6562C196.938 30.0938 196.094 30.3125 195.125 30.3125C194.052 30.3125 193.104 30.099 192.281 29.6719C191.469 29.2448 190.786 28.6458 190.234 27.875C189.693 27.1042 189.281 26.1979 189 25.1562C188.719 24.1146 188.578 22.9792 188.578 21.75ZM193.844 21.4219V21.75C193.844 22.3854 193.885 22.974 193.969 23.5156C194.052 24.0573 194.193 24.5365 194.391 24.9531C194.599 25.3594 194.87 25.6771 195.203 25.9062C195.547 26.1354 195.969 26.25 196.469 26.25C197.146 26.25 197.703 26.0885 198.141 25.7656C198.589 25.4427 198.917 24.9844 199.125 24.3906C199.344 23.7969 199.438 23.099 199.406 22.2969V21.0625C199.427 20.375 199.38 19.7708 199.266 19.25C199.151 18.7188 198.969 18.276 198.719 17.9219C198.479 17.5677 198.172 17.3021 197.797 17.125C197.432 16.9375 197 16.8438 196.5 16.8438C196.01 16.8438 195.594 16.9583 195.25 17.1875C194.917 17.4167 194.646 17.7396 194.438 18.1562C194.229 18.5625 194.078 19.0469 193.984 19.6094C193.891 20.1615 193.844 20.7656 193.844 21.4219Z" fill="#F22F2F"/>
<path d="M180.273 32.4375V36H179.551V31.7734H180.254L180.273 32.4375ZM181.594 31.75L181.59 32.4219C181.53 32.4089 181.473 32.401 181.418 32.3984C181.366 32.3932 181.306 32.3906 181.238 32.3906C181.072 32.3906 180.924 32.4167 180.797 32.4688C180.669 32.5208 180.561 32.5938 180.473 32.6875C180.384 32.7812 180.314 32.8932 180.262 33.0234C180.212 33.151 180.18 33.2917 180.164 33.4453L179.961 33.5625C179.961 33.3073 179.986 33.0677 180.035 32.8438C180.087 32.6198 180.167 32.4219 180.273 32.25C180.38 32.0755 180.516 31.9401 180.68 31.8438C180.846 31.7448 181.044 31.6953 181.273 31.6953C181.326 31.6953 181.385 31.7018 181.453 31.7148C181.521 31.7253 181.568 31.737 181.594 31.75ZM184.598 35.2773V33.1016C184.598 32.9349 184.564 32.7904 184.496 32.668C184.431 32.543 184.332 32.4466 184.199 32.3789C184.066 32.3112 183.902 32.2773 183.707 32.2773C183.525 32.2773 183.365 32.3086 183.227 32.3711C183.091 32.4336 182.984 32.5156 182.906 32.6172C182.831 32.7188 182.793 32.8281 182.793 32.9453H182.07C182.07 32.7943 182.109 32.6445 182.188 32.4961C182.266 32.3477 182.378 32.2135 182.523 32.0938C182.672 31.9714 182.849 31.875 183.055 31.8047C183.263 31.7318 183.495 31.6953 183.75 31.6953C184.057 31.6953 184.328 31.7474 184.562 31.8516C184.799 31.9557 184.984 32.1133 185.117 32.3242C185.253 32.5326 185.32 32.7943 185.32 33.1094V35.0781C185.32 35.2188 185.332 35.3685 185.355 35.5273C185.382 35.6862 185.419 35.8229 185.469 35.9375V36H184.715C184.678 35.9167 184.65 35.806 184.629 35.668C184.608 35.5273 184.598 35.3971 184.598 35.2773ZM184.723 33.4375L184.73 33.9453H184C183.794 33.9453 183.611 33.9622 183.449 33.9961C183.288 34.0273 183.152 34.0755 183.043 34.1406C182.934 34.2057 182.85 34.2878 182.793 34.3867C182.736 34.4831 182.707 34.5964 182.707 34.7266C182.707 34.8594 182.737 34.9805 182.797 35.0898C182.857 35.1992 182.947 35.2865 183.066 35.3516C183.189 35.4141 183.339 35.4453 183.516 35.4453C183.737 35.4453 183.932 35.3984 184.102 35.3047C184.271 35.2109 184.405 35.0964 184.504 34.9609C184.605 34.8255 184.66 34.694 184.668 34.5664L184.977 34.9141C184.958 35.0234 184.909 35.1445 184.828 35.2773C184.747 35.4102 184.639 35.5378 184.504 35.6602C184.371 35.7799 184.212 35.8802 184.027 35.9609C183.845 36.0391 183.639 36.0781 183.41 36.0781C183.124 36.0781 182.872 36.0221 182.656 35.9102C182.443 35.7982 182.276 35.6484 182.156 35.4609C182.039 35.2708 181.98 35.0586 181.98 34.8242C181.98 34.5977 182.025 34.3984 182.113 34.2266C182.202 34.0521 182.329 33.9076 182.496 33.793C182.663 33.6758 182.863 33.5872 183.098 33.5273C183.332 33.4674 183.594 33.4375 183.883 33.4375H184.723ZM189.121 35.1797V30H189.848V36H189.184L189.121 35.1797ZM186.277 33.9336V33.8516C186.277 33.5286 186.316 33.2357 186.395 32.9727C186.475 32.707 186.589 32.4792 186.734 32.2891C186.883 32.099 187.059 31.9531 187.262 31.8516C187.467 31.7474 187.697 31.6953 187.949 31.6953C188.215 31.6953 188.447 31.7422 188.645 31.8359C188.845 31.9271 189.014 32.0612 189.152 32.2383C189.293 32.4128 189.404 32.6237 189.484 32.8711C189.565 33.1185 189.621 33.3984 189.652 33.7109V34.0703C189.624 34.3802 189.568 34.6589 189.484 34.9062C189.404 35.1536 189.293 35.3646 189.152 35.5391C189.014 35.7135 188.845 35.8477 188.645 35.9414C188.444 36.0326 188.21 36.0781 187.941 36.0781C187.694 36.0781 187.467 36.0247 187.262 35.918C187.059 35.8112 186.883 35.6615 186.734 35.4688C186.589 35.276 186.475 35.0495 186.395 34.7891C186.316 34.526 186.277 34.2409 186.277 33.9336ZM187.004 33.8516V33.9336C187.004 34.1445 187.025 34.3424 187.066 34.5273C187.111 34.7122 187.178 34.875 187.27 35.0156C187.361 35.1562 187.477 35.2669 187.617 35.3477C187.758 35.4258 187.926 35.4648 188.121 35.4648C188.361 35.4648 188.557 35.4141 188.711 35.3125C188.867 35.2109 188.992 35.0768 189.086 34.9102C189.18 34.7435 189.253 34.5625 189.305 34.3672V33.4258C189.273 33.2826 189.228 33.1445 189.168 33.0117C189.111 32.8763 189.035 32.7565 188.941 32.6523C188.85 32.5456 188.737 32.4609 188.602 32.3984C188.469 32.3359 188.311 32.3047 188.129 32.3047C187.931 32.3047 187.76 32.3464 187.617 32.4297C187.477 32.5104 187.361 32.6224 187.27 32.7656C187.178 32.9062 187.111 33.0703 187.066 33.2578C187.025 33.4427 187.004 33.6406 187.004 33.8516ZM191.758 31.7734V36H191.031V31.7734H191.758ZM190.977 30.6523C190.977 30.5352 191.012 30.4362 191.082 30.3555C191.155 30.2747 191.262 30.2344 191.402 30.2344C191.54 30.2344 191.646 30.2747 191.719 30.3555C191.794 30.4362 191.832 30.5352 191.832 30.6523C191.832 30.7643 191.794 30.8607 191.719 30.9414C191.646 31.0195 191.54 31.0586 191.402 31.0586C191.262 31.0586 191.155 31.0195 191.082 30.9414C191.012 30.8607 190.977 30.7643 190.977 30.6523ZM192.727 33.9336V33.8438C192.727 33.5391 192.771 33.2565 192.859 32.9961C192.948 32.7331 193.076 32.5052 193.242 32.3125C193.409 32.1172 193.611 31.9661 193.848 31.8594C194.085 31.75 194.35 31.6953 194.645 31.6953C194.941 31.6953 195.208 31.75 195.445 31.8594C195.685 31.9661 195.888 32.1172 196.055 32.3125C196.224 32.5052 196.353 32.7331 196.441 32.9961C196.53 33.2565 196.574 33.5391 196.574 33.8438V33.9336C196.574 34.2383 196.53 34.5208 196.441 34.7812C196.353 35.0417 196.224 35.2695 196.055 35.4648C195.888 35.6576 195.686 35.8086 195.449 35.918C195.215 36.0247 194.949 36.0781 194.652 36.0781C194.355 36.0781 194.089 36.0247 193.852 35.918C193.615 35.8086 193.411 35.6576 193.242 35.4648C193.076 35.2695 192.948 35.0417 192.859 34.7812C192.771 34.5208 192.727 34.2383 192.727 33.9336ZM193.449 33.8438V33.9336C193.449 34.1445 193.474 34.3438 193.523 34.5312C193.573 34.7161 193.647 34.8802 193.746 35.0234C193.848 35.1667 193.974 35.2799 194.125 35.3633C194.276 35.444 194.452 35.4844 194.652 35.4844C194.85 35.4844 195.023 35.444 195.172 35.3633C195.323 35.2799 195.448 35.1667 195.547 35.0234C195.646 34.8802 195.72 34.7161 195.77 34.5312C195.822 34.3438 195.848 34.1445 195.848 33.9336V33.8438C195.848 33.6354 195.822 33.4388 195.77 33.2539C195.72 33.0664 195.645 32.901 195.543 32.7578C195.444 32.612 195.319 32.4974 195.168 32.4141C195.02 32.3307 194.845 32.2891 194.645 32.2891C194.447 32.2891 194.272 32.3307 194.121 32.4141C193.973 32.4974 193.848 32.612 193.746 32.7578C193.647 32.901 193.573 33.0664 193.523 33.2539C193.474 33.4388 193.449 33.6354 193.449 33.8438Z" fill="black"/>
</svg>
